<svg width="186" height="128" viewBox="0 0 186 128" fill="none" xmlns="http://www.w3.org/2000/svg">
<path d="M27.1844 23.2403C30.5528 15.4227 28.5634 7.05147 22.7408 4.54268C16.9183 2.03389 9.46751 6.33755 6.09909 14.1552C2.73066 21.9728 4.72011 30.3441 10.5427 32.8529C16.3652 35.3617 23.816 31.058 27.1844 23.2403Z" fill="#FE3434"/>
<path d="M87 52C87 52 103.193 104.773 115.625 110.584C128.057 116.396 185 127 185 127" stroke="#170C2C" stroke-width="2" stroke-miterlimit="10"/>
<path d="M55.4916 27C55.4916 27 17.2813 24.2019 16.2089 19.69C15.1365 15.1782 68.1929 11 68.1929 11" stroke="#170C2C" stroke-width="2" stroke-miterlimit="10"/>
<path d="M77.6233 23.6127C77.6233 23.6127 65.8433 31.4656 65.2396 27.7511C64.6359 24.0367 69.8835 8.11887 81.0366 8.00107C92.1897 7.88328 113.072 17.4717 107.159 26.7931C101.245 36.1145 88.1031 27.0365 88.1031 27.0365" stroke="#170C2C" stroke-width="2" stroke-miterlimit="10"/>
<path d="M42.1929 26C42.1929 26 42.0781 37.6018 51.6528 39.2192C61.2275 40.8366 75.1877 42.6639 76.1444 38.2005C77.1011 33.7371 63.6001 34.3125 62.2072 28.8693" stroke="#170C2C" stroke-width="2" stroke-miterlimit="10"/>
<path d="M67.6621 40.8314C67.6621 40.8314 77.636 46.3496 74.6272 49.7645C72.7476 51.8838 51.1929 39 51.1929 39" stroke="#170C2C" stroke-width="2" stroke-miterlimit="10"/>
</svg>
