<svg width="186" height="113" viewBox="0 0 186 113" fill="none" xmlns="http://www.w3.org/2000/svg">
<path d="M151.562 51.6264C165.818 51.6264 177.375 40.0695 177.375 25.8132C177.375 11.557 165.818 0 151.562 0C137.306 0 125.749 11.557 125.749 25.8132C125.749 40.0695 137.306 51.6264 151.562 51.6264Z" fill="#2C3FEE"/>
<path d="M1 73.1155C1 73.1155 64.3433 115.892 87.376 110.96C110.409 106.027 142.806 64.8408 142.806 64.8408C142.806 64.8408 164.194 62.956 169.949 60.4696C175.704 57.9832 186.659 44.6154 184.453 42.149C182.247 39.6826 166.473 52.6561 166.473 52.6561" stroke="#170C2C" stroke-width="2" stroke-linejoin="bevel"/>
<path d="M153.193 46.8407C153.193 46.8407 171.239 41.9347 177.368 44.5147" stroke="#170C2C" stroke-width="2" stroke-linejoin="bevel"/>
<path d="M137.352 38.1519C137.352 38.1519 128.509 34.8634 122.547 38.1519C116.585 41.4404 82.2363 62.4211 82.2363 62.4211C82.2363 62.4211 30.8238 18.4143 12.7238 17.7927" stroke="#170C2C" stroke-width="2" stroke-linejoin="bevel"/>
</svg>
