<svg width="94" height="58" viewBox="0 0 94 58" fill="none" xmlns="http://www.w3.org/2000/svg">
<mask id="path-1-inside-1" fill="white">
<path d="M20.1409 0C9.36344 8.10877 -0.41561 17.2626 0.013623 23.6405C0.946738 37.6045 67.4498 37.2406 67.4498 37.2406C67.4498 37.2406 50.1872 43.2172 45.9882 49.8377C41.7892 56.4581 93.6237 57.7692 93.6237 57.7692"/>
</mask>
<path d="M0.013623 23.6405L2.00917 23.5071L2.00911 23.5062L0.013623 23.6405ZM67.4498 37.2406L68.1042 39.1306L67.4389 35.2407L67.4498 37.2406ZM18.9385 -1.59817C13.5113 2.48513 8.25827 6.8875 4.39697 11.1217C2.46658 13.2385 0.834505 15.3665 -0.294567 17.4397C-1.41427 19.4957 -2.1246 21.6539 -1.98186 23.7748L2.00911 23.5062C1.93723 22.4381 2.28832 21.0604 3.21826 19.3528C4.13884 17.6625 5.54464 15.7995 7.35254 13.817C10.9678 9.85258 15.9931 5.62364 21.3434 1.59817L18.9385 -1.59817ZM-1.98193 23.7738C-1.80733 26.3867 -0.105702 28.386 2.03744 29.8761C4.19376 31.3754 7.09595 32.58 10.364 33.5706C16.9208 35.558 25.4773 36.8365 33.885 37.6674C42.3182 38.5008 50.7098 38.8936 56.9853 39.0784C60.1251 39.1709 62.74 39.2115 64.5714 39.2289C65.4872 39.2376 66.2074 39.2405 66.6997 39.2413C66.9458 39.2417 67.135 39.2415 67.2632 39.2412C67.3273 39.2411 67.3761 39.2409 67.4092 39.2408C67.4258 39.2408 67.4384 39.2407 67.447 39.2407C67.4513 39.2406 67.4546 39.2406 67.4569 39.2406C67.4581 39.2406 67.459 39.2406 67.4596 39.2406C67.4603 39.2406 67.4608 39.2406 67.4498 37.2406C67.4389 35.2407 67.4388 35.2407 67.4385 35.2407C67.4381 35.2407 67.4375 35.2407 67.4367 35.2407C67.4349 35.2407 67.4322 35.2407 67.4284 35.2407C67.4209 35.2407 67.4094 35.2408 67.394 35.2408C67.3632 35.241 67.3166 35.2411 67.2549 35.2412C67.1313 35.2415 66.947 35.2417 66.7058 35.2413C66.2234 35.2406 65.5139 35.2377 64.6095 35.2291C62.8004 35.2119 60.2124 35.1717 57.103 35.0802C50.88 34.8969 42.5875 34.5079 34.2783 33.6868C25.9435 32.8631 17.6993 31.6143 11.5243 29.7426C8.42654 28.8036 5.98009 27.7456 4.32092 26.592C2.64857 25.4292 2.06785 24.3853 2.00917 23.5071L-1.98193 23.7738ZM67.4498 37.2406C66.7955 35.3507 66.7952 35.3508 66.7948 35.3509C66.7946 35.351 66.7942 35.3512 66.7937 35.3513C66.7929 35.3516 66.7918 35.352 66.7904 35.3525C66.7876 35.3534 66.7838 35.3547 66.779 35.3564C66.7693 35.3598 66.7555 35.3646 66.7378 35.3709C66.7022 35.3833 66.6506 35.4015 66.584 35.4253C66.4507 35.4727 66.257 35.5424 66.0104 35.6329C65.5173 35.814 64.8119 36.0789 63.9535 36.4172C62.2393 37.0929 59.904 38.0659 57.4287 39.2532C54.9599 40.4373 52.3136 41.8527 49.9939 43.4188C47.7124 44.9591 45.5717 46.7602 44.2992 48.7665L47.6771 50.9089C48.5041 49.605 50.0959 48.1762 52.2321 46.734C54.3302 45.3175 56.7868 43.9974 59.1586 42.8598C61.5238 41.7253 63.7667 40.7904 65.4203 40.1386C66.246 39.8131 66.922 39.5594 67.3893 39.3878C67.6229 39.302 67.8043 39.2368 67.9259 39.1935C67.9867 39.1718 68.0326 39.1556 68.0626 39.1451C68.0776 39.1398 68.0887 39.136 68.0956 39.1335C68.0991 39.1323 68.1016 39.1315 68.103 39.131C68.1037 39.1307 68.1042 39.1306 68.1044 39.1305C68.1045 39.1305 68.1044 39.1305 68.1045 39.1305C68.1043 39.1305 68.1042 39.1306 67.4498 37.2406ZM44.2992 48.7665C43.7494 49.6333 43.5501 50.698 43.9737 51.7592C44.3419 52.6817 45.0733 53.3171 45.7287 53.7491C47.048 54.6189 49.0144 55.2769 51.1804 55.8117C55.6036 56.9037 61.8151 57.6985 68.0463 58.2775C74.3048 58.859 80.6859 59.2315 85.4959 59.4586C87.9025 59.5723 89.9193 59.6497 91.3355 59.6987C92.0436 59.7232 92.6017 59.7406 92.9834 59.7519C93.1742 59.7576 93.321 59.7617 93.4204 59.7644C93.4701 59.7658 93.5079 59.7668 93.5335 59.7675C93.5463 59.7678 93.5561 59.7681 93.5627 59.7682C93.566 59.7683 93.5685 59.7684 93.5703 59.7684C93.5712 59.7685 93.5719 59.7685 93.5723 59.7685C93.5728 59.7685 93.5732 59.7685 93.6237 57.7692C93.6743 55.7698 93.6742 55.7698 93.674 55.7698C93.6736 55.7698 93.6731 55.7698 93.6724 55.7697C93.671 55.7697 93.6688 55.7697 93.6659 55.7696C93.6599 55.7694 93.6509 55.7692 93.6388 55.7689C93.6146 55.7682 93.5782 55.7673 93.5299 55.7659C93.4334 55.7633 93.2896 55.7593 93.1019 55.7537C92.7263 55.7426 92.1749 55.7254 91.4738 55.7011C90.0717 55.6525 88.0718 55.5758 85.6845 55.4631C80.9067 55.2375 74.5916 54.8685 68.4164 54.2947C62.2138 53.7183 56.254 52.9441 52.1391 51.9283C50.0362 51.4091 48.6418 50.8786 47.9302 50.4095C47.5701 50.172 47.6184 50.1004 47.6887 50.2764C47.7338 50.3895 47.7593 50.5395 47.7393 50.6959C47.7207 50.8421 47.6725 50.9162 47.6771 50.9089L44.2992 48.7665Z" fill="#FFC121" mask="url(#path-1-inside-1)"/>
</svg>
