<svg width="104" height="124" viewBox="0 0 104 124" fill="none" xmlns="http://www.w3.org/2000/svg">
<path d="M82.2455 106.061L38.1941 65.8658C37.9831 65.6748 37.6922 65.6013 37.4157 65.6777C37.3605 65.6851 31.8172 67.0622 28.3521 67.7564C26.7655 68.0812 25.5928 67.929 24.8735 67.3001C23.9041 66.4406 24.0046 64.8814 24.0046 64.8814C24.0302 64.6532 23.9377 64.4238 23.7896 64.2413C23.6257 64.0665 23.4217 63.9702 23.1853 63.9681C19.5457 63.9043 18.9265 61.7557 18.822 61.1008C18.6654 60.0988 19.0589 59.2592 19.5253 59.09C19.865 58.9827 20.0964 58.6538 20.0996 58.2993C20.1027 57.9447 19.885 57.6198 19.5473 57.4907C18.0472 56.9495 16.2195 56.0194 16.0186 54.686C15.8099 53.3369 17.3359 51.8454 17.9468 51.3702C18.2324 51.1521 18.3618 50.775 18.2309 50.4272C18.1236 50.0875 17.7948 49.856 17.4402 49.8529C17.4167 49.8448 14.9272 49.8071 13.8444 48.395C13.307 47.6969 13.2133 46.7032 13.5315 45.469C14.4035 42.199 26.7179 36.9422 34.273 34.3853C34.5101 34.3086 34.7007 34.137 34.7816 33.9013C34.8702 33.6815 34.8645 33.4293 34.7562 33.2077C32.0784 27.7316 28.2861 18.2116 29.5191 16.0005C29.6232 15.8124 29.7262 15.7424 29.9549 15.7286C31.3586 15.5913 33.8118 19.726 35.9857 23.3696C36.5447 24.3122 37.1269 25.3023 37.7249 26.2846C41.0181 31.6558 45.7089 38.4813 48.2492 40.7887C52.7202 44.8387 89.3184 73.4015 90.8756 74.6208L91.9127 73.2905L91.9116 73.2905C91.5282 72.9877 53.8112 43.5405 49.3792 39.5301C47.3077 37.6602 43.1123 31.8476 39.1588 25.4069C38.5608 24.4246 37.9863 23.4504 37.4274 22.5078C34.4306 17.4623 32.2725 13.8109 29.7806 14.0488C29.0156 14.1287 28.4054 14.5252 28.0372 15.1759C26.1878 18.4924 31.0241 29.3454 32.8189 33.096C28.5351 34.6025 13.1442 40.2654 11.8886 45.0369C11.4238 46.8135 11.6156 48.2886 12.4879 49.4309C13.3135 50.5177 14.5696 51.0409 15.5994 51.3022C14.843 52.2016 14.0907 53.5107 14.3223 54.9468C14.538 56.3906 15.6541 57.5902 17.6548 58.5534C17.1754 59.2977 16.9617 60.3044 17.1334 61.3774C17.4318 63.2711 18.9662 65.286 22.3276 65.623C22.4149 66.4432 22.727 67.683 23.7277 68.5664C24.8691 69.5772 26.5212 69.8676 28.6761 69.4218C31.6045 68.8331 35.9868 67.7688 37.3687 67.4264L81.0997 107.327L82.2455 106.061Z" fill="#2C3FEE"/>
<path d="M28.2972 47.4666C30.6079 46.3366 32.4227 45.1551 32.7705 44.1417C33.0859 43.2227 33.2521 41.3568 31.8997 40.155C29.7498 38.245 25.0389 39.0385 17.4825 42.6355C17.4825 42.6355 17.4825 42.6355 17.4666 42.6432C17.0551 42.8444 16.8695 43.3471 17.0707 43.7586C17.2796 44.1859 17.7745 44.3557 18.1938 44.1703C27.4117 39.8002 30.0581 40.8006 30.7616 41.4372C31.6058 42.201 31.168 43.5918 31.1599 43.6153C30.7232 44.8879 23.1625 48.0751 16.3671 50.2605C15.9088 50.4062 15.6682 50.8768 15.8297 51.3274C15.9676 51.7698 16.446 52.0262 16.8965 51.8647C19.0852 51.1671 24.4038 49.3704 28.2972 47.4666Z" fill="#2C3FEE"/>
<path d="M30.5972 54.7355C32.7496 53.683 34.5479 52.5879 35.2502 51.5777C36.2078 50.2074 36.4415 48.7203 35.8861 47.3838C35.2071 45.7546 33.3665 44.5171 31.0926 44.1582C30.6283 44.091 30.1922 44.4023 30.125 44.8666C30.0579 45.3309 30.3692 45.767 30.8335 45.8341C32.533 46.1013 33.8651 46.9404 34.328 48.0476C34.6597 48.8463 34.5103 49.7038 33.872 50.6043C32.4917 52.554 24.2058 55.782 18.9748 57.4771C18.5323 57.615 18.276 58.0933 18.4374 58.5439C18.5754 58.9863 19.0537 59.2427 19.5043 59.0812C20.4131 58.7741 26.229 56.8715 30.5972 54.7355Z" fill="#2C3FEE"/>
<path d="M32.8075 61.9488C34.6909 61.0279 36.3228 60.0338 37.0719 59.0791C38.4344 57.3735 38.9154 55.5498 38.4007 54.0561C37.9317 52.7361 36.7031 51.7876 34.9652 51.402C34.5013 51.2954 34.0574 51.5909 33.9667 52.0471C33.8602 52.511 34.1557 52.9549 34.6119 53.0456C35.4296 53.234 36.4739 53.6451 36.8278 54.6095C37.1585 55.5264 36.7693 56.7757 35.7814 58.004C34.1003 60.1008 25.9195 63.0225 22.8934 63.9727C22.4509 64.1106 22.1946 64.589 22.3325 65.0314C22.4704 65.4739 22.9488 65.7303 23.3912 65.5924C24.1576 65.3549 29.0091 63.8062 32.8075 61.9488Z" fill="#2C3FEE"/>
<path d="M33.9893 67.2151C38.8797 64.8237 39.7831 62.4601 39.585 60.8116C39.3717 59.0921 37.8617 57.889 36.5237 57.7196C36.0594 57.6524 35.6388 57.9954 35.5875 58.4519C35.5362 58.9084 35.8633 59.3368 36.3198 59.3881C36.9023 59.4563 37.795 60.0788 37.9129 61.0017C37.9935 61.6879 37.7201 64.0965 30.7707 66.7691C30.3279 66.9464 30.1109 67.4251 30.2882 67.8679C30.4577 68.2948 30.9442 68.5277 31.387 68.3503C32.3437 67.9806 33.2138 67.5943 33.9893 67.2151Z" fill="#2C3FEE"/>
<path d="M40.8399 51.9425C40.9507 51.8883 41.0538 51.8183 41.1178 51.7086C41.4125 51.3488 41.3463 50.8124 40.9865 50.5177C31.5587 42.9884 34.6225 34.2145 34.7596 33.8533C34.921 33.4214 34.697 32.923 34.2492 32.7693C33.8173 32.6079 33.3189 32.832 33.1575 33.2639C33.1252 33.3582 29.5054 43.5218 39.9268 51.8399C40.2086 52.0551 40.555 52.0818 40.8399 51.9425Z" fill="#2C3FEE"/>
</svg>
