<svg width="102" height="124" viewBox="0 0 102 124" fill="none" xmlns="http://www.w3.org/2000/svg">
<path d="M15.8317 77.1158C26.4794 68.919 36.7194 61.0298 43.7383 54.9569C54.0982 46.018 53.9163 43.9871 53.7617 43.6633C50.9191 37.3934 54.6368 28.0986 59.444 25.737C60.2383 25.3518 61.26 24.9291 62.1598 24.9957C61.9589 24.8304 61.7856 24.6316 61.629 24.4466C60.6835 23.2754 60.4633 21.8027 61.0418 20.6221C61.6339 19.4248 63.2518 18.0046 67.619 18.0886C70.9839 18.1621 73.6651 19.4419 75.565 21.8757C78.2933 25.3843 78.6891 30.5673 78.122 33.133C77.9923 33.7001 77.4254 34.0479 76.8888 33.9152C76.3217 33.7855 75.974 33.2185 76.1067 32.6819C76.4713 31.0446 76.4646 26.3783 73.949 23.1571C72.4519 21.2232 70.3054 20.215 67.5902 20.1707C65.1054 20.1195 63.368 20.6272 62.9185 21.5488C62.584 22.2282 63.0854 22.9496 63.2588 23.1484C63.698 23.7064 64.537 24.2564 65.485 24.0257C67.0206 23.6609 68.5201 24.1929 69.572 25.5077C71.3262 27.7093 71.9432 32.3163 69.6788 36.9107C67.9927 40.3245 65.5081 40.7507 63.7437 40.0288C61.4505 39.0964 59.7097 35.9231 60.8651 32.4377C62.2143 28.4098 62.1578 27.3525 62.0061 27.0592C61.9923 27.0759 61.5729 27.0397 60.3662 27.619C56.7932 29.3678 53.1331 37.1936 55.6663 42.8159C57.6674 47.2423 43.8773 58.1318 17.2663 78.6305L15.8317 77.1158ZM63.7924 25.946C64.5775 27.2098 64.0616 29.5087 62.8708 33.1054C62.1215 35.3808 63.1314 37.5314 64.5591 38.1167C65.7308 38.6035 66.9335 37.8243 67.8355 36.0116C69.6888 32.2581 69.2906 28.477 67.9757 26.8334C67.4163 26.1484 66.7596 25.8888 66.0223 26.0683C65.282 26.2172 64.5072 26.1692 63.7924 25.946Z" fill="#25EA5C"/>
<path d="M70.7574 42.4607C70.2552 42.0474 69.8297 41.4726 69.5084 40.7029C69.2236 39.9913 69.05 38.8375 69.9374 37.3497C71.844 34.1455 77.4534 31.3209 82.9602 30.7705C85.568 30.5017 86.9643 31.398 87.6409 32.1794C88.7144 33.3997 88.8135 35.0536 88.5403 36.2045C88.4105 36.7716 87.8436 37.1193 87.307 36.9866C86.7399 36.8569 86.3922 36.29 86.5249 35.7534C86.6654 35.1391 86.6346 34.1871 86.0811 33.5632C85.4074 32.8123 84.1079 32.7537 83.1619 32.8456C77.8381 33.3783 73.0724 36.1671 71.7206 38.424C71.3773 39.0119 71.2721 39.515 71.4327 39.8998C72.2782 41.9432 74.4555 41.208 74.7075 41.1065C75.242 40.9006 75.8544 41.1799 76.0466 41.7311C76.2526 42.2656 75.9565 42.8643 75.422 43.0702C74.292 43.4881 72.2474 43.6867 70.7574 42.4607Z" fill="#25EA5C"/>
<path d="M74.4648 46.9979C73.9626 46.5847 73.5233 46.0266 73.2158 45.2402C72.931 44.5285 72.7574 43.3748 73.6448 41.8869C75.5514 38.6828 81.1608 35.8582 86.6676 35.3077C89.2754 35.039 90.6549 35.9215 91.3483 36.7167C92.4218 37.937 92.5209 39.5908 92.2477 40.7418C92.1179 41.3089 91.551 41.6566 91.0144 41.5239C90.4473 41.3942 90.0996 40.8273 90.2323 40.2907C90.3728 39.6763 90.342 38.7244 89.7885 38.1004C89.0981 37.3358 87.8153 37.291 86.8693 37.3829C81.5455 37.9156 76.7798 40.7044 75.428 42.9613C75.0847 43.5491 74.9795 44.0522 75.1401 44.4371C75.9856 46.4805 78.1629 45.7453 78.4149 45.6438C78.9494 45.4378 79.5618 45.7172 79.754 46.2684C79.96 46.8029 79.6639 47.4015 79.1294 47.6075C77.9994 48.0253 75.9548 48.224 74.4648 46.9979Z" fill="#25EA5C"/>
<path d="M68.2115 73.496C63.8559 77.4926 59.6301 81.3995 55.5588 85.1529C43.5624 96.2483 32.9428 106.067 23.7329 113.271L24.7917 115.069C34.1368 107.787 44.8442 97.8869 56.9433 86.7L56.9839 86.6625C61.0384 82.8954 65.2504 79.0051 69.6229 75.0223C92.4593 54.1972 93.8312 52.9395 96.2314 45.6211C96.5805 44.6168 96.5897 42.9678 95.5546 41.6668C94.8523 40.78 93.4471 39.7922 90.6868 40.0758C85.1799 40.6262 79.5706 43.4508 77.6639 46.655C76.7765 48.1428 76.9502 49.2966 77.235 50.0082C78.779 53.6934 86.7727 50.8374 89.1902 49.8786C89.7247 49.6726 89.9735 49.0632 89.7676 48.5287C89.5616 47.9942 88.9521 47.7454 88.4177 47.9513C84.444 49.5388 79.6303 50.407 79.1455 49.2219C78.9849 48.837 79.09 48.3339 79.4334 47.7461C80.7852 45.4892 85.5509 42.7003 90.8746 42.1677C92.3089 42.0283 93.3516 42.2967 93.911 42.9817C94.4005 43.581 94.4195 44.4109 94.2426 44.9672C92.0098 51.7724 90.6658 52.9992 68.2529 73.4582L68.2115 73.496Z" fill="#25EA5C"/>
<path d="M66.3587 39.5148C65.6327 38.3839 63.9468 39.5797 64.6422 40.7136C66.1868 43.1357 65.873 46.2467 63.9708 48.3877C63.0832 49.3981 64.6904 50.7206 65.5779 49.7102C68.1059 46.8769 68.377 42.6919 66.3587 39.5148Z" fill="#25EA5C"/>
<path d="M36 21H49" stroke="#FFC121" stroke-width="2"/>
<path d="M37.5 4.5L51 14.5" stroke="#FFC121" stroke-width="2"/>
<path d="M57 1L58 12" stroke="#FFC121" stroke-width="2"/>
</svg>
