<svg width="99" height="89" viewBox="0 0 99 89" fill="none" xmlns="http://www.w3.org/2000/svg">
<path d="M35.8309 26.5288C37.146 25.8492 39.8706 25.0047 45.3614 24.9607C48.5838 24.9372 50.9908 26.5603 52.5425 29.7527C54.7951 34.3961 54.2847 40.6634 52.8479 42.4351C50.6066 45.2106 45.8573 41.7104 45.8079 41.6624C45.3554 41.3082 44.6946 41.4046 44.3597 41.8472C44.0055 42.2998 44.0919 42.9413 44.5252 43.3055C44.7418 43.4876 44.9891 43.7764 45.0497 43.9411C44.8376 44.0997 43.88 44.5701 40.4709 44.4695C35.9223 44.3451 31.1772 40.4262 30.1047 35.9325C29.3105 32.5938 30.7811 29.702 34.2709 27.825C34.4643 27.7251 34.6177 27.5478 34.7124 27.3518C34.7411 27.3125 35.0186 26.9485 35.8309 26.5288ZM52.9216 45.0434C53.4825 44.7536 54.022 44.3277 54.4816 43.7472C56.5602 41.1783 56.9721 34.1042 54.4291 28.8512C52.5169 24.914 49.3833 22.8333 45.3434 22.8871C36.2702 22.9691 33.6998 25.1551 33.022 26.167C28.8766 28.5298 27.0863 32.273 28.0769 36.4659C29.3857 41.891 34.9181 46.4323 40.4214 46.6024C44.3952 46.7052 46.4424 46.1619 47.0083 44.7912C48.8589 45.5747 51.0844 45.9929 52.9216 45.0434Z" fill="#9130DE"/>
<path d="M39.9024 47.8751C45.5345 49.6694 52.2034 49.6292 60.2221 55.8996C60.4287 56.0624 60.6647 56.2344 60.8913 56.4359L87.0577 42.9138C76.8179 35.0956 67.4159 28.0453 64.6175 26.2813C55.8984 20.7894 39.4477 22.5276 27.7661 22.6833C15.6951 22.8442 20.0278 27.9565 23.9875 28.4587C29.0199 29.0926 40.3273 29.3508 42.9334 29.8418C48.4091 30.8593 52.7741 44.2373 42.1453 40.835C34.5085 38.3859 30.4502 34.1365 28.6352 38.211C27.2925 41.2082 33.889 45.9593 39.9024 47.8751Z" fill="white"/>
<path d="M60.8733 55.073C63.087 56.796 66.3944 59.4976 70.617 62.9269C73.5827 65.3416 77.0649 68.1762 80.9434 71.3053C81.3046 71.5967 81.4332 72.0901 81.2597 72.5205C80.9952 73.1767 80.1718 73.3909 79.621 72.9467C75.9959 70.0227 72.7167 67.3567 69.8805 65.051L69.3249 64.5993C65.1316 61.1793 61.8048 58.4878 59.6205 56.7741C53.8398 52.2572 48.7531 51.1123 44.2691 50.1031L44.2356 50.0956C42.6242 49.7276 41.1008 49.3876 39.6048 48.911C34.9994 47.4438 29.3173 44.0826 27.8023 40.7243C27.22 39.4079 27.4211 38.4219 27.6953 37.8146C28.1871 36.7273 28.8402 36.0467 29.7217 35.7137C31.4462 35.0676 33.4647 36.0338 36.2666 37.3303L36.4087 37.3963C38.1485 38.2045 40.1418 39.1303 42.4832 39.8763C44.6539 40.5678 46.2601 40.5464 47.0191 39.7866C47.7015 39.1154 47.8093 37.7119 47.3005 36.0635C46.526 33.4742 44.5193 31.2032 42.7625 30.8859C41.5424 30.6587 38.0934 30.4808 34.459 30.2761C30.5226 30.0559 26.4501 29.8571 23.8752 29.5214C21.4077 29.2038 18.7254 27.3799 18.8528 25.2557C18.9777 22.9368 21.9798 21.7284 27.772 21.6512C29.7382 21.6152 31.8405 21.558 34.0302 21.4801L34.2268 21.4737C45.2634 21.1131 57.7233 20.706 65.2001 25.4167C67.5424 26.8825 74.3457 31.9382 82.4012 38.0459C82.8291 38.3703 82.9403 38.967 82.6581 39.4238C82.3348 39.9472 81.6303 40.0777 81.1402 39.706C73.1205 33.6234 66.367 28.598 64.094 27.1646C57.1573 22.7876 45.0456 23.1896 34.3038 23.5462L34.0968 23.5531C31.9071 23.6309 29.7855 23.6982 27.7899 23.7248C22.2511 23.8181 20.9325 24.9651 20.9184 25.3645C20.8781 25.9979 22.3646 27.2146 24.12 27.4346C26.6262 27.7322 30.8354 27.9584 34.5478 28.1718C38.4255 28.3733 41.7772 28.5525 43.134 28.8071C46.0035 29.3335 48.422 32.5435 49.2977 35.4235C50.0409 37.8574 49.7481 39.9936 48.4794 41.2373C47.1054 42.609 44.8591 42.8142 41.8277 41.8323C39.295 41.0092 37.1004 39.987 35.3565 39.1729C33.2106 38.15 31.3393 37.2792 30.4384 37.6222C30.3124 37.6628 29.9443 37.8041 29.5853 38.6267C29.5186 38.7347 29.3678 39.1067 29.6889 39.8229C30.7721 42.2036 35.4976 45.3731 40.2203 46.8777C41.6283 47.3262 43.1031 47.6668 44.6751 48.0061C49.382 49.0533 54.7143 50.2674 60.8733 55.073Z" fill="#9130DE"/>
<path d="M41.8937 29.3006C40.5655 31.1877 38.2696 32.0556 36.0128 31.4821C35.4462 31.3338 34.9046 31.6137 34.6977 32.1617C33.8041 34.5103 34.2273 37.0361 35.5774 38.9849C36.889 38.7727 38.119 39.0192 39.1589 39.6089C39.0796 39.5029 38.971 39.3875 38.8337 39.3114C36.8699 38.0719 35.9932 35.854 36.4314 33.6672C39.2497 33.9996 41.9504 32.8244 43.6515 30.4261C44.4254 29.3156 42.6675 28.1901 41.8937 29.3006Z" fill="#9130DE"/>
<path d="M46.9332 34.1215C46.5267 33.572 46.2069 32.9531 45.9644 32.2943C45.7117 32.3268 44.9901 32.9693 44.8286 33.2733C44.0967 34.6072 42.8135 35.4908 41.276 35.5503C40.4292 35.5713 40.0009 36.3073 40.2933 37.0628C40.8795 38.6712 41.7651 40.1004 42.8921 41.3803C43.7818 42.3908 45.3112 40.9878 44.4308 39.948C43.729 39.159 43.1819 38.29 42.7315 37.3711C44.2552 37.0002 46.0566 35.5547 46.9332 34.1215Z" fill="#9130DE"/>
<path d="M15.4053 12.6537C15.8006 14.5567 16.2053 16.4305 16.6007 18.3335C16.8909 19.6538 18.8994 19.1305 18.6385 17.8195C18.2431 15.9165 17.8384 14.0427 17.4431 12.1397C17.1529 10.8194 15.1251 11.3527 15.4053 12.6537Z" fill="#FFC121"/>
<path d="M11.6128 21.8177C8.31808 20.8004 5.02338 19.783 1.72866 18.7657C0.447977 18.3738 -0.197502 20.3492 1.09318 20.7604C4.38789 21.7777 7.68261 22.7951 10.9773 23.8124C12.268 24.2236 12.9035 22.2289 11.6128 21.8177Z" fill="#FFC121"/>
</svg>
