<svg width="112" height="123" viewBox="0 0 112 123" fill="none" xmlns="http://www.w3.org/2000/svg">
<path d="M19.4602 100.241C19.3743 100.18 19.2986 100.105 19.233 100.016C18.9763 99.6194 19.0876 99.0991 19.4732 98.8592L69.088 66.7092C69.3255 66.5568 69.6226 66.5324 69.8819 66.6523C69.9349 66.6686 75.1579 68.9226 78.4491 70.1686C79.955 70.7458 81.1302 70.7884 81.936 70.2904C83.0238 69.6074 83.1725 68.0646 83.1725 68.0646C83.1835 67.837 83.3107 67.6276 83.485 67.4731C83.6736 67.3288 83.8891 67.2678 84.1215 67.3044C87.7042 67.8368 88.6527 65.8346 88.8592 65.2106C89.1718 64.2552 88.9187 63.369 88.4877 63.1271C88.1713 62.9666 87.9963 62.6068 88.0494 62.2592C88.1025 61.9116 88.3678 61.6291 88.7197 61.5579C90.2781 61.2733 92.2196 60.6614 92.6282 59.389C93.047 58.1023 91.7856 56.3929 91.2614 55.8278C91.0156 55.5676 90.9484 55.1773 91.132 54.8582C91.2912 54.5431 91.6507 54.3704 91.9992 54.4252C92.0237 54.4212 94.4733 54.791 95.76 53.5856C96.3983 52.99 96.6478 52.0327 96.5312 50.7724C96.1938 47.4287 84.9397 40.27 77.9292 36.5322C77.7086 36.4183 77.5488 36.2191 77.5067 35.9752C77.4546 35.7455 77.5002 35.4996 77.6417 35.3004C81.1385 30.3772 86.3707 21.6773 85.5111 19.3113C85.4388 19.11 85.3487 19.0247 85.1265 18.9739C83.7704 18.6101 80.7066 22.2567 77.9949 25.4684C77.2968 26.2998 76.5683 27.1739 75.8255 28.0378C71.7411 32.7577 66.0543 38.6729 63.1948 40.5166C58.1638 43.7507 17.7098 65.731 15.9879 66.6701C15.5737 66.8897 15.072 66.7474 14.8498 66.3328C14.6277 65.9181 14.7676 65.4181 15.1819 65.1985C15.6062 64.9648 57.2988 42.3015 62.2852 39.0999C64.6151 37.6078 69.6551 32.6033 74.5572 26.9442C75.3 26.0803 76.0183 25.2205 76.7165 24.3891C80.4582 19.9395 83.1556 16.7177 85.5639 17.3579C86.3022 17.5611 86.8382 18.049 87.0965 18.7462C88.3859 22.2951 81.9175 32.1293 79.561 35.5077C83.5271 37.6825 97.7366 45.7416 98.2124 50.6179C98.3869 52.433 97.9647 53.8457 96.9273 54.8215C95.9446 55.7504 94.6287 56.0574 93.5763 56.1448C94.1762 57.1489 94.707 58.5535 94.252 59.9215C93.8113 61.2996 92.5255 62.2916 90.4089 62.9075C90.7614 63.7145 90.8116 64.7349 90.4728 65.7573C89.8796 67.5624 88.054 69.2841 84.701 69.0646C84.4852 69.8533 83.9823 71.016 82.8599 71.7173C81.5792 72.5202 79.9115 72.5345 77.8669 71.7459C75.0858 70.691 70.9529 68.9329 69.6507 68.3719L20.3972 100.286C20.1252 100.457 19.732 100.434 19.4602 100.241Z" fill="#25EA5C"/>
<path d="M81.9471 50.1785C79.8061 48.6577 78.1685 47.1737 77.9723 46.1144C77.7942 45.1536 77.9068 43.2867 79.4382 42.342C81.8726 40.8406 86.463 42.4538 93.4791 47.3302C93.4791 47.3302 93.4791 47.3302 93.4937 47.3406C93.875 47.6114 93.9855 48.1392 93.7229 48.5089C93.4502 48.8929 92.9301 48.9727 92.5388 48.7161C83.9774 42.7849 81.1826 43.3029 80.3843 43.8056C79.4264 44.4088 79.6562 45.8557 79.6608 45.8803C79.9073 47.2107 86.9888 51.6843 93.455 55.0363C93.8913 55.2606 94.0615 55.7666 93.8328 56.1818C93.6288 56.5932 93.1124 56.7612 92.6861 56.5226C90.6025 55.4491 85.5545 52.7407 81.9471 50.1785Z" fill="#25EA5C"/>
<path d="M78.0765 57.241C76.1795 55.8935 74.6385 54.5471 74.1552 53.4252C73.4948 51.9027 73.5681 50.3517 74.3849 49.054C75.3824 47.4724 77.4397 46.4374 79.7431 46.3559C80.2121 46.3455 80.5765 46.7189 80.5479 47.2024C80.5193 47.6858 80.1252 48.093 79.6561 48.1033C77.9348 48.1631 76.4575 48.8543 75.7781 49.929C75.2902 50.7046 75.2622 51.6008 75.705 52.6023C76.6622 54.7707 84.1326 59.115 88.9185 61.5067C89.3244 61.7034 89.4785 62.2251 89.2284 62.6658C89.0031 63.1012 88.4817 63.3034 88.0727 63.0815C87.2438 62.6531 81.9264 59.9755 78.0765 57.241Z" fill="#25EA5C"/>
<path d="M75.3515 63.8918C73.6678 62.696 72.2452 61.4623 71.6841 60.3942C70.6579 58.4824 70.521 56.5772 71.3032 55.1464C72.0083 53.884 73.3925 53.1039 75.174 52.9632C75.6503 52.9221 76.0326 53.2829 76.0377 53.7552C76.057 54.2376 75.6842 54.6425 75.2185 54.6688C74.3789 54.742 73.2753 55.0071 72.749 55.9279C72.2544 56.8041 72.407 58.1177 73.1526 59.4954C74.4202 61.8465 81.9325 65.9548 84.7354 67.3431C85.1454 67.545 85.3095 68.0633 85.0921 68.4892C84.8747 68.9151 84.3566 69.1051 83.9466 68.9032C83.2362 68.5548 78.7471 66.3037 75.3515 63.8918Z" fill="#25EA5C"/>
<path d="M73.1783 68.4808C68.6011 65.2297 67.9717 62.8212 68.3535 61.311C68.7583 59.7371 70.39 58.9145 71.7349 59.0291C72.2025 59.0611 72.5808 59.4698 72.5803 59.9098C72.5798 60.3498 72.2074 60.6858 71.7492 60.6405C71.1644 60.5854 70.2097 60.9882 69.9891 61.8322C69.832 62.4612 69.8321 64.7831 76.4179 68.7203C76.8368 68.9778 76.9979 69.4725 76.7724 69.8528C76.5564 70.2197 76.0481 70.3391 75.6293 70.0816C74.7229 69.5379 73.9041 68.9964 73.1783 68.4808Z" fill="#25EA5C"/>
<path d="M68.507 52.8974C68.4175 52.8339 68.3386 52.7555 68.304 52.6419C68.1131 52.2613 68.2901 51.7414 68.6829 51.4861C78.9325 44.9842 78.0416 36.0912 77.9949 35.724C77.9414 35.2852 78.2545 34.8174 78.6969 34.7086C79.1266 34.5908 79.5331 34.8572 79.5866 35.296C79.5957 35.3915 80.6922 45.6998 69.3634 52.8822C69.0592 53.067 68.7369 53.0607 68.507 52.8974Z" fill="#25EA5C"/>
<path d="M55.6737 75.6736C45.9947 68.7987 43.2602 54.1551 44.6427 49.541C44.7769 49.1123 45.228 48.8668 45.6709 48.9927C46.1038 49.1325 46.3572 49.585 46.2372 50.0237C44.9944 54.1713 47.7187 67.9902 56.6336 74.3223C57.0156 74.5936 57.0951 75.1112 56.8378 75.4734C56.5806 75.8356 56.0417 75.9349 55.6737 75.6736Z" fill="#25EA5C"/>
</svg>
