<svg width="20" height="20" viewBox="0 0 20 20" fill="none" xmlns="http://www.w3.org/2000/svg">
<path d="M12.5815 10.5282L10.8332 9.519V5.83317C10.8332 5.61216 10.7454 5.4002 10.5891 5.24392C10.4328 5.08764 10.2209 4.99984 9.99984 4.99984C9.77883 4.99984 9.56687 5.08764 9.41059 5.24392C9.25431 5.4002 9.16651 5.61216 9.16651 5.83317V9.99984C9.16651 10.1461 9.20502 10.2898 9.27816 10.4165C9.3513 10.5432 9.45649 10.6484 9.58317 10.7215L11.7482 11.9715C11.843 12.0271 11.9479 12.0634 12.0567 12.0783C12.1656 12.0931 12.2764 12.0863 12.3826 12.0583C12.4889 12.0302 12.5885 11.9813 12.6758 11.9146C12.7631 11.8478 12.8364 11.7645 12.8913 11.6693C12.9463 11.5741 12.9818 11.469 12.996 11.36C13.0102 11.251 13.0026 11.1403 12.9738 11.0343C12.9451 10.9282 12.8956 10.8289 12.8282 10.742C12.7609 10.6552 12.677 10.5825 12.5815 10.5282ZM9.99984 1.6665C8.35166 1.6665 6.7405 2.15525 5.37009 3.07092C3.99968 3.9866 2.93158 5.28809 2.30084 6.81081C1.67011 8.33353 1.50509 10.0091 1.82663 11.6256C2.14817 13.2421 2.94185 14.727 4.10728 15.8924C5.27272 17.0578 6.75758 17.8515 8.37409 18.173C9.9906 18.4946 11.6662 18.3296 13.1889 17.6988C14.7116 17.0681 16.0131 16 16.9288 14.6296C17.8444 13.2592 18.3332 11.648 18.3332 9.99984C18.3307 7.79044 17.452 5.67224 15.8897 4.10996C14.3274 2.54768 12.2092 1.66893 9.99984 1.6665ZM9.99984 16.6665C8.6813 16.6665 7.39237 16.2755 6.29604 15.543C5.19971 14.8104 4.34523 13.7692 3.84064 12.5511C3.33606 11.3329 3.20404 9.99244 3.46127 8.69924C3.71851 7.40603 4.35345 6.21814 5.2858 5.28579C6.21815 4.35344 7.40603 3.7185 8.69924 3.46127C9.99245 3.20403 11.3329 3.33606 12.5511 3.84064C13.7692 4.34522 14.8104 5.19971 15.543 6.29604C16.2755 7.39236 16.6665 8.6813 16.6665 9.99984C16.6643 11.7673 15.9612 13.4617 14.7114 14.7114C13.4617 15.9612 11.7673 16.6643 9.99984 16.6665Z" fill="#A9A9A9"/>
</svg>
