<svg width="18" height="18" viewBox="0 0 18 18" fill="none" xmlns="http://www.w3.org/2000/svg">
<path fill-rule="evenodd" clip-rule="evenodd" d="M12.5006 11.4062H11.7106L11.4306 11.1377C12.6306 9.74544 13.2506 7.84598 12.9106 5.82717C12.4406 3.06251 10.1206 0.854749 7.32063 0.516624C3.09063 -0.000507712 -0.469374 3.53986 0.0506256 7.74653C0.390626 10.5311 2.61063 12.8383 5.39063 13.3057C7.42063 13.6438 9.33063 13.0272 10.7306 11.8339L11.0006 12.1123V12.898L15.2506 17.1245C15.6606 17.5323 16.3306 17.5323 16.7406 17.1245C17.1506 16.7168 17.1506 16.0505 16.7406 15.6427L12.5006 11.4062ZM6.50061 11.4062C4.01061 11.4062 2.00061 9.40733 2.00061 6.93106C2.00061 4.45479 4.01061 2.45587 6.50061 2.45587C8.99061 2.45587 11.0006 4.45479 11.0006 6.93106C11.0006 9.40733 8.99061 11.4062 6.50061 11.4062Z" fill="black"/>
</svg>
