<svg width="38" height="40" viewBox="0 0 38 40" fill="none" xmlns="http://www.w3.org/2000/svg">
<path d="M18.1411 0L19.8589 0C24.1471 0 27.2074 0.742605 29.8148 2.13706C32.4222 3.53152 34.4685 5.57783 35.8629 8.18523C37.2574 10.7926 38 13.8529 38 18.1411V21.8589C38 26.1471 37.2574 29.2074 35.8629 31.8148C34.4685 34.4222 32.4222 36.4685 29.8148 37.8629C27.2074 39.2574 24.1471 40 19.8589 40H18.1411C13.8529 40 10.7926 39.2574 8.18523 37.8629C5.57783 36.4685 3.53152 34.4222 2.13706 31.8148C0.742605 29.2074 0 26.1471 0 21.8589L0 18.1411C0 13.8529 0.742605 10.7926 2.13706 8.18523C3.53152 5.57783 5.57783 3.53152 8.18523 2.13706C10.7926 0.742605 13.8529 0 18.1411 0Z" fill="#F2F2F2"/>
<path d="M17.3295 16.5563C17.8217 12.8566 18.0679 11.0067 18.5354 10.7645C18.8268 10.6136 19.1734 10.6136 19.4648 10.7645C19.9324 11.0067 20.1785 12.8566 20.6708 16.5563V16.5563C20.7318 17.0148 20.7623 17.2441 20.8725 17.4254C20.9448 17.5443 21.0409 17.647 21.1548 17.7271C21.3283 17.8491 21.555 17.8948 22.0084 17.9862L22.2341 18.0317C25.9989 18.7905 27.8813 19.1699 27.8958 19.982C27.896 19.994 27.896 20.006 27.8958 20.018C27.8813 20.8301 25.9989 21.2095 22.2341 21.9683L22.0084 22.0138C21.555 22.1052 21.3283 22.1509 21.1548 22.2729C21.0409 22.353 20.9448 22.4557 20.8725 22.5746C20.7623 22.756 20.7318 22.9852 20.6708 23.4437V23.4437C20.1785 27.1435 19.9324 28.9933 19.4648 29.2355C19.1734 29.3864 18.8268 29.3864 18.5354 29.2355C18.0679 28.9933 17.8217 27.1435 17.3295 23.4437V23.4437C17.2685 22.9852 17.238 22.756 17.1277 22.5746C17.0554 22.4557 16.9593 22.353 16.8455 22.2729C16.6719 22.1509 16.4452 22.1052 15.9918 22.0138L15.7662 21.9683C12.0013 21.2095 10.1189 20.8301 10.1044 20.018C10.1042 20.006 10.1042 19.994 10.1044 19.982C10.1189 19.1699 12.0013 18.7905 15.7662 18.0317L15.9918 17.9862C16.4452 17.8948 16.6719 17.8491 16.8455 17.7271C16.9593 17.647 17.0554 17.5443 17.1277 17.4254C17.238 17.2441 17.2685 17.0148 17.3295 16.5563V16.5563Z" fill="white"/>
</svg>
