<svg width="7" height="12" viewBox="0 0 7 12" fill="none" xmlns="http://www.w3.org/2000/svg">
<path d="M2.324 7.402H4.242V7.36C4.242 6.982 4.746 6.702 5.446 6.184C6.356 5.498 6.706 4.77 6.706 3.734C6.706 2.25 5.446 0.891999 3.626 0.891999C1.806 0.891999 0.392 2.306 0.392 4.042H2.31C2.31 3.23 2.94 2.782 3.626 2.782C4.27 2.782 4.788 3.188 4.788 3.846C4.788 4.546 4.186 4.812 3.542 5.26C2.814 5.764 2.324 6.31 2.324 7.136V7.402ZM4.676 9.712C4.676 8.942 4.06 8.312 3.276 8.312C2.506 8.312 1.876 8.942 1.876 9.712C1.876 10.482 2.506 11.112 3.276 11.112C4.06 11.112 4.676 10.482 4.676 9.712Z" fill="white"/>
</svg>
